<?xml version="1.0" encoding="UTF-8" standalone="no"?>
<!-- Generator: Adobe Illustrator 19.2.1, SVG Export Plug-In . SVG Version: 6.00 Build 0)  -->

<svg
   xmlns:dc="http://purl.org/dc/elements/1.1/"
   xmlns:cc="http://creativecommons.org/ns#"
   xmlns:rdf="http://www.w3.org/1999/02/22-rdf-syntax-ns#"
   xmlns:svg="http://www.w3.org/2000/svg"
   xmlns="http://www.w3.org/2000/svg"
   xmlns:sodipodi="http://sodipodi.sourceforge.net/DTD/sodipodi-0.dtd"
   xmlns:inkscape="http://www.inkscape.org/namespaces/inkscape"
   version="1.1"
   id="Layer_1"
    x="0px"
    y="0px"
    viewBox="0 0 24 24"
    xml:space="preserve"
    height="24"
    width="24"><path
     class="st0"
     d="m 10.1,7.9 c 0,0.3 0,1.9 0,1.9 l -1.4,0 0,2.2 1.4,0 0,6.8 2.8,0 0,-6.8 1.9,0 c 0,0 0.2,-1.1 0.3,-2.3 -0.2,0 -2.1,0 -2.1,0 0,0 0,-1.3 0,-1.6 0,-0.2 0.3,-0.5 0.6,-0.5 0.3,0 0.9,0 1.5,0 0,-0.3 0,-1.4 0,-2.4 -0.8,0 -1.7,0 -2.1,0 -3,0.1 -2.9,2.3 -2.9,2.7 z"
     id="path6"
     inkscape:connector-curvature="0"
     style="fill:#007fad" /></svg>
