<svg baseProfile="tiny" xmlns="http://www.w3.org/2000/svg" width="24" height="24" viewBox="0 0 24 24"><path fill="#007fad" d="M12 2C6.5 2 2 6.5 2 12s4.5 10 10 10 10-4.5 10-10S17.5 2 12 2zm0 16c-.6 0-1.2-.1-1.7-.2.2-.4.5-.8.6-1.3.1-.3.4-1.6.4-1.6.2.4.8.7 1.5.7 1.9 0 3.2-1.8 3.2-4.1C16 9.7 14.5 8 12.2 8c-2.9 0-4.3 2-4.3 3.7 0 1 .4 1.9 1.2 2.3.1.1.3 0 .3-.2 0-.1.1-.4.1-.5 0-.2 0-.2-.1-.3-.2-.3-.4-.7-.4-1.2 0-1.5 1.1-2.9 3-2.9 1.6 0 2.5 1 2.5 2.3 0 1.7-.8 3.2-1.9 3.2-.6 0-1.1-.5-.9-1.2.2-.8.5-1.6.5-2.1s-.3-.9-.8-.9c-.6 0-1.2.7-1.2 1.6 0 .6.2.9.2.9s-.7 2.8-.8 3.3c-.1.5-.1 1-.1 1.4-2-.8-3.5-2.9-3.5-5.4 0-3.3 2.7-6 6-6s6 2.7 6 6-2.7 6-6 6z"/></svg>
