<?xml version="1.0" encoding="UTF-8" standalone="no"?>
<!-- Generator: Adobe Illustrator 19.2.1, SVG Export Plug-In . SVG Version: 6.00 Build 0)  -->

<svg
   xmlns:dc="http://purl.org/dc/elements/1.1/"
   xmlns:cc="http://creativecommons.org/ns#"
   xmlns:rdf="http://www.w3.org/1999/02/22-rdf-syntax-ns#"
   xmlns:svg="http://www.w3.org/2000/svg"
   xmlns="http://www.w3.org/2000/svg"
   xmlns:sodipodi="http://sodipodi.sourceforge.net/DTD/sodipodi-0.dtd"
   xmlns:inkscape="http://www.inkscape.org/namespaces/inkscape"
   version="1.1"
     x="0px"
     y="0px"
     viewBox="0 0 24 24"
     xml:space="preserve"
     height="24"
     width="24"
   ><polygon
     class="st0"
     points="14.3,-11.2 14.3,-12.2 16.4,-12.2 16.4,-14.3 17.4,-14.3 17.4,-12.2 19.5,-12.2 19.5,-11.2 17.4,-11.2 17.4,-9.1 16.4,-9.1 16.4,-11.2 "
     id="polygon6"
     transform="translate(0,24)"
     style="fill:#007fad" /><path
     class="st0"
     d="m 14.2,5.5 -3.4,0 C 9.9,5.5 8.8,5.6 7.9,6.4 7.2,7 6.8,7.8 6.8,8.6 c 0,1.3 1,2.6 2.7,2.6 0.2,0 0.3,0 0.5,0 0,0.1 -0.1,0.3 -0.1,0.6 0,0.5 0.3,0.8 0.5,1.1 C 9.7,13 8.3,13 7.3,13.7 6.3,14.3 6,15.1 6,15.7 6,16.9 7.1,18 9.5,18 c 2.8,0 4.3,-1.6 4.3,-3.1 0,-1.1 -0.7,-1.7 -1.4,-2.3 l -0.6,-0.5 c -0.2,-0.1 -0.4,-0.4 -0.4,-0.7 0,-0.4 0.2,-0.6 0.5,-0.8 0.7,-0.5 1.4,-1.1 1.4,-2.3 0,-1.2 -0.8,-1.9 -1.2,-2.2 l 1,0 1.1,-0.6 z m -1.4,10 c 0,1 -0.8,1.8 -2.4,1.8 -1.8,0 -2.9,-0.8 -2.9,-2 0,-1.2 1.1,-1.6 1.4,-1.7 0.7,-0.2 1.6,-0.3 1.7,-0.3 0.2,0 0.2,0 0.4,0 1.2,0.9 1.7,1.4 1.8,2.2 z m -1.4,-5.3 c -0.3,0.3 -0.7,0.5 -1.1,0.5 C 8.9,10.7 8.2,8.9 8.2,7.8 8.2,7.4 8.3,6.9 8.6,6.6 8.9,6.3 9.3,6.1 9.8,6.1 c 1.4,0 2.1,1.8 2.1,3 -0.1,0.2 -0.1,0.8 -0.5,1.1 z"
     id="path8"
     style="fill:#007fad" /></svg>
