<?xml version="1.0" encoding="UTF-8" standalone="no"?>
<!-- Generator: Adobe Illustrator 19.2.1, SVG Export Plug-In . SVG Version: 6.00 Build 0)  -->

<svg
   xmlns:dc="http://purl.org/dc/elements/1.1/"
   xmlns:cc="http://creativecommons.org/ns#"
   xmlns:rdf="http://www.w3.org/1999/02/22-rdf-syntax-ns#"
   xmlns:svg="http://www.w3.org/2000/svg"
   xmlns="http://www.w3.org/2000/svg"
   xmlns:sodipodi="http://sodipodi.sourceforge.net/DTD/sodipodi-0.dtd"
   xmlns:inkscape="http://www.inkscape.org/namespaces/inkscape"
   version="1.1"
   id="Layer_1"
   x="0px"
   y="0px"
   viewBox="0 0 24 24"
   xml:space="preserve"
   inkscape:version="0.91 r"
   sodipodi:docname="icn_social_twitter_dark.svg"
   height="24"
   width="24"><metadata
     id="metadata17"><rdf:RDF><cc:Work
         rdf:about=""><dc:format>image/svg+xml</dc:format><dc:type
           rdf:resource="http://purl.org/dc/dcmitype/StillImage" /><dc:title></dc:title></cc:Work></rdf:RDF></metadata><defs
     id="defs15" /><sodipodi:namedview
     inkscape:cx="19.632293"
     inkscape:cy="15.838003"
     inkscape:window-maximized="0"
     inkscape:current-layer="Layer_1"
     inkscape:window-width="1994"
     inkscape:window-height="1234"
     inkscape:zoom="20.018519"
     inkscape:window-x="59"
     inkscape:window-y="34" /><path
     class="st1"
     d="m 17.6,9.1 c 0,-0.1 0,-0.4 0,-0.4 0.5,-0.4 1,-0.9 1.4,-1.5 -0.5,0.2 -1,0.4 -1.5,0.5 0,0 0,-0.1 0,-0.1 0.5,-0.3 0.9,-0.8 1.1,-1.3 0,-0.1 0.1,-0.1 0.1,-0.2 -0.5,0.2 -0.9,0.4 -1.4,0.6 -0.1,0 -0.2,0.1 -0.4,0.1 -0.5,-0.6 -1.3,-1 -2.1,-1 -0.2,0 -0.4,0 -0.7,0.1 C 13.7,6 13.3,6.2 13,6.5 12.9,6.6 12.8,6.7 12.7,6.7 12.5,6.9 12.3,7.2 12.2,7.5 l 0,0 C 12.1,7.8 12,8.2 12,8.6 c 0,0.2 0,0.4 0.1,0.6 -0.3,0 -0.7,0 -1,-0.1 C 11,9.1 10.9,9.1 10.8,9 10.4,8.9 10.1,8.8 9.8,8.7 9.7,8.8 9.6,8.8 9.5,8.7 8.7,8.4 8,8 7.4,7.5 7.3,7.4 7.3,7.4 7.2,7.3 c 0,0 0,0 0,0 C 6.9,7 6.6,6.7 6.3,6.4 6,6.8 5.9,7.3 5.9,7.8 l 0,0 c 0,0.4 0.1,0.7 0.2,1 0,0 0,0 0,0 0,0 0.1,0 0.1,0.1 0.2,0.5 0.6,0.9 1.1,1.1 l 0,0 C 6.8,10 6.4,9.9 6,9.7 c 0,0 0,0.1 0,0.1 0,0.8 0.3,1.5 0.9,2 0.4,0.4 0.9,0.6 1.4,0.7 -0.3,0.1 -0.5,0.1 -0.8,0.1 -0.2,0 -0.4,0 -0.5,0 0.3,1.1 1.4,1.9 2.6,1.9 0.1,0 0.1,0 0.2,0 -1.2,0.8 -2.6,1.3 -3.9,1.3 -0.1,0 -0.3,0 -0.4,0 1.2,0.8 2.7,1.2 4.3,1.2 4.3,0 7.8,-3.6 7.8,-7.9 z"
     id="path10"
     style="fill:#007fad"
     inkscape:connector-curvature="0" /></svg>
